<svg width="16" height="17" viewBox="0 0 16 17" fill="none" xmlns="http://www.w3.org/2000/svg">
<g id="icons/Star/Filled">
<path id="Shape" d="M7.38789 2.58514C7.61949 2.04844 8.3805 2.04844 8.6121 2.58514L10.0655 5.95307C10.1635 6.18032 10.3794 6.33454 10.6262 6.35361L14.3533 6.64161C14.9513 6.68781 15.1889 7.43852 14.7264 7.82038L11.9235 10.1346C11.7258 10.2978 11.6392 10.5599 11.7008 10.8088L12.5634 14.2944C12.7053 14.8676 12.0869 15.3286 11.578 15.029L8.33821 13.1217C8.12947 12.9988 7.87051 12.9988 7.66178 13.1217L4.42195 15.029C3.91309 15.3286 3.29474 14.8676 3.4366 14.2944L4.29922 10.8088C4.36081 10.5599 4.27423 10.2978 4.07653 10.1346L1.2736 7.82038C0.811097 7.43852 1.0487 6.68781 1.64669 6.64161L5.37379 6.35361C5.62057 6.33454 5.83647 6.18032 5.93454 5.95307L7.38789 2.58514Z" fill="#23262F"/>
</g>
</svg>
